<svg width="368" height="368" viewBox="0 0 368 368" fill="none" xmlns="http://www.w3.org/2000/svg">
<path d="M270.96 170.72C268.64 155.04 262.16 140.72 252.72 128.96C243.12 117.04 230.48 107.6 216 102C206.08 98.16 195.28 96 184 96C179.52 96 175.04 96.32 170.72 97.04C155.04 99.36 140.72 105.84 128.96 115.28C117.04 124.88 107.6 137.52 102 152C98.16 161.92 96 172.72 96 184C96 188.48 96.32 192.96 97.04 197.28C99.36 212.96 105.84 227.28 115.28 239.04C124.88 250.96 137.52 260.4 152 266C161.92 269.84 172.72 272 184 272C188.48 272 192.96 271.68 197.28 270.96C212.96 268.64 227.28 262.16 239.04 252.72C250.96 243.12 260.4 230.48 266 216C269.84 206.08 272 195.28 272 184C272 179.52 271.68 175.04 270.96 170.72V170.72ZM184 232C157.488 232 136 210.512 136 184C136 157.488 157.488 136 184 136C210.512 136 232 157.488 232 184C232 210.512 210.512 232 184 232Z" fill="#999999"/>
<path d="M184 232C210.51 232 232 210.51 232 184C232 157.49 210.51 136 184 136C157.49 136 136 157.49 136 184C136 210.51 157.49 232 184 232Z" fill="#B3B3B3"/>
<path d="M152 302.72V266C161.92 269.84 172.72 272 184 272C188.48 272 192.96 271.68 197.28 270.96L215.76 302.88C211.36 360 152 360 152 360V302.72Z" fill="#CCCCCC"/>
<path d="M96.96 270.88L115.28 239.04C124.88 250.96 137.52 260.4 152 266V302.72C119.68 350.08 68.32 320.4 68.32 320.4L96.96 270.88Z" fill="#B3B3B3"/>
<path d="M65.12 215.76L97.04 197.28C99.36 212.96 105.84 227.28 115.28 239.04L96.96 270.88C45.28 295.6 15.6 244.32 15.6 244.32L65.12 215.76Z" fill="#CCCCCC"/>
<path d="M65.28 152H102C98.16 161.92 96 172.72 96 184C96 188.48 96.32 192.96 97.04 197.28L65.12 215.76C8 211.36 8 152 8 152H65.28Z" fill="#B3B3B3"/>
<path d="M97.12 96.96L128.96 115.28C117.04 124.88 107.6 137.52 102 152H65.28C17.92 119.68 47.6 68.32 47.6 68.32L97.12 96.96Z" fill="#CCCCCC"/>
<path d="M152.24 65.12L170.72 97.04C155.04 99.36 140.72 105.84 128.96 115.28L97.12 96.96C72.4 45.28 123.68 15.6 123.68 15.6L152.24 65.12Z" fill="#B3B3B3"/>
<path d="M216 65.28V102C206.08 98.16 195.28 96 184 96C179.52 96 175.04 96.32 170.72 97.04L152.24 65.12C156.64 8 216 8 216 8V65.28Z" fill="#CCCCCC"/>
<path d="M271.04 97.12L252.72 128.96C243.12 117.04 230.48 107.6 216 102V65.28C248.32 17.92 299.68 47.6 299.68 47.6L271.04 97.12Z" fill="#B3B3B3"/>
<path d="M302.88 152.24L270.96 170.72C268.64 155.04 262.16 140.72 252.72 128.96L271.04 97.12C322.72 72.4 352.4 123.68 352.4 123.68L302.88 152.24Z" fill="#CCCCCC"/>
<path d="M302.72 216H266C269.84 206.08 272 195.28 272 184C272 179.52 271.68 175.04 270.96 170.72L302.88 152.24C360 156.64 360 216 360 216H302.72Z" fill="#B3B3B3"/>
<path d="M270.88 271.04L239.04 252.72C250.96 243.12 260.4 230.48 266 216H302.72C350.08 248.32 320.4 299.68 320.4 299.68L270.88 271.04Z" fill="#CCCCCC"/>
<path d="M215.76 302.88L197.28 270.96C212.96 268.64 227.28 262.16 239.04 252.72L270.88 271.04C295.6 322.72 244.32 352.4 244.32 352.4L215.76 302.88Z" fill="#B3B3B3"/>
<path d="M323.24 224H360C364.424 224 368 220.424 368 216C368 196.512 358.304 161.728 324.648 148.944L356.392 130.608C358.224 129.544 359.568 127.792 360.12 125.752C360.664 123.696 360.376 121.512 359.312 119.672C349.568 102.84 323.776 77.632 288.264 83.376L306.6 51.608C307.664 49.776 307.952 47.584 307.408 45.536C306.864 43.48 305.528 41.728 303.68 40.672C286.808 30.936 251.864 21.944 224 44.76V8C224 3.576 220.424 0 216 0C196.512 0 161.728 9.696 148.944 43.352L130.608 11.608C129.544 9.776 127.792 8.432 125.752 7.88C123.704 7.32 121.512 7.624 119.672 8.688C102.84 18.432 77.632 44.216 83.376 79.744L51.608 61.408C49.768 60.336 47.576 60.04 45.536 60.6C43.48 61.144 41.728 62.48 40.672 64.328C30.928 81.192 21.944 116.144 44.76 144.008H8C3.576 144.008 0 147.584 0 152.008C0 171.496 9.696 206.28 43.352 219.064L11.608 237.4C9.776 238.464 8.432 240.216 7.88 242.256C7.336 244.312 7.624 246.496 8.688 248.336C17.472 263.504 39.248 285.592 69.48 285.584C72.784 285.584 76.232 285.208 79.736 284.64L61.408 316.392C60.344 318.224 60.056 320.416 60.6 322.464C61.144 324.52 62.48 326.272 64.328 327.328C73.408 332.568 87.728 337.632 103.368 337.632C116.784 337.632 131.144 333.776 144.008 323.248V360C144.008 364.424 147.584 368 152.008 368C171.496 368 206.28 358.304 219.064 324.648L237.4 356.392C241.152 361.184 246.048 360.808 248.336 359.312C265.168 349.568 290.376 323.784 284.632 288.256L316.4 306.592C321.568 309.2 325.76 306.352 327.336 303.672C337.072 286.816 346.056 251.864 323.24 224V224ZM351.272 208H276.872C278.896 200.16 279.992 192.136 279.992 184C279.992 180.888 279.8 177.904 279.528 175.008L304.616 160.52C340.144 164.488 349.072 193.56 351.272 208ZM234.032 246.48C223.088 255.272 209.968 260.992 195.968 263.072C192.256 263.688 188.224 264 184 264C174.04 264 164.24 262.168 154.888 258.536C141.936 253.52 130.384 245.04 121.52 234.032C112.728 223.088 107.008 209.968 104.928 195.968C104.312 192.256 104 188.224 104 184C104 174.04 105.832 164.24 109.464 154.888C114.48 141.936 122.96 130.384 133.968 121.52C144.912 112.728 158.032 107.008 172.032 104.928C175.744 104.312 179.776 104 184 104C193.96 104 203.76 105.832 213.112 109.464C226.064 114.48 237.616 122.96 246.48 133.968C255.272 144.912 260.992 158.032 263.072 172.032C263.688 175.744 264 179.776 264 184C264 193.96 262.168 203.76 258.536 213.112C253.52 226.064 245.048 237.608 234.032 246.48V246.48ZM340.832 121.12L276.44 158.32C273.504 147.648 268.608 137.632 262.184 128.576L276.704 103.408C309.44 89.128 331.688 109.752 340.832 121.12V121.12ZM288.384 51.16L251.224 115.536C243.272 107.736 234.024 101.512 224 96.92V67.952C245.168 39.072 274.776 45.856 288.384 51.16V51.16ZM208 16.728V91.128C200.16 89.104 192.136 88 184 88C180.888 88 177.904 88.192 175.008 88.464L160.52 63.376C164.488 27.856 193.56 18.928 208 16.728ZM121.12 27.168L158.32 91.56C147.648 94.496 137.632 99.392 128.576 105.816L103.408 91.296C89.128 58.56 109.744 36.312 121.12 27.168V27.168ZM51.16 79.616L115.536 116.776C107.736 124.728 101.52 133.976 96.92 144H67.952C39.064 122.832 45.848 93.224 51.16 79.616V79.616ZM16.728 160H91.128C89.104 167.84 88 175.864 88 184C88 187.112 88.192 190.096 88.464 192.992L63.376 207.48C27.856 203.512 18.928 174.44 16.728 160V160ZM27.168 246.88L91.56 209.68C94.496 220.352 99.392 230.368 105.816 239.424L91.296 264.592C58.568 278.872 36.312 258.248 27.168 246.88V246.88ZM79.616 316.84L116.776 252.464C124.728 260.264 133.976 266.48 144 271.08V300.048C122.84 328.928 93.224 322.144 79.616 316.84V316.84ZM160 351.272V276.872C167.84 278.896 175.864 279.992 184 279.992C187.112 279.992 190.096 279.8 192.992 279.528L207.48 304.616C203.512 340.144 174.44 349.072 160 351.272V351.272ZM246.88 340.832L209.68 276.44C220.352 273.504 230.368 268.608 239.424 262.184L264.592 276.704C278.872 309.44 258.256 331.688 246.88 340.832V340.832ZM316.84 288.384L252.464 251.224C260.264 243.272 266.488 234.024 271.08 224H300.048C328.936 245.168 322.152 274.776 316.84 288.384V288.384Z" fill="#252525"/>
<path d="M184 144C188.418 144 192 140.418 192 136C192 131.582 188.418 128 184 128C179.582 128 176 131.582 176 136C176 140.418 179.582 144 184 144Z" fill="#252525"/>
<path d="M214.968 137.336C211.272 134.888 206.312 135.896 203.872 139.568C201.424 143.248 202.424 148.216 206.104 150.664C217.312 158.104 224 170.56 224 184C224 206.056 206.056 224 184 224C161.944 224 144 206.056 144 184C144 179.576 140.424 176 136 176C131.576 176 128 179.576 128 184C128 214.872 153.128 240 184 240C214.872 240 240 214.872 240 184C240 165.192 230.64 147.752 214.968 137.336V137.336Z" fill="#252525"/>
</svg>
